# xmcd CD database file
# Copyright (C) 1993-1998 Ti Kan
#
# Track frame offsets:
#	182
#	17527
#	36025
#	46707
#	61552
#	73455
#	91822
#	108532
#	125872
#	139422
#	152670
#	169527
#
# Disc length: 2479 seconds
#
# Revision: 1
# Processed by: cddbd v1.4b41PL1 Copyright (c) Steve Scherf et al.
# Submitted via: CDValet v3.01 - Copyright (c) 1997 Greg Leichner
#
DISCID=9c09ad0c
DTITLE=Debbie Jordan - Sceam In A Whisper
DYEAR=1900
DGENRE=
TTITLE0=Scream In A Whisper
TTITLE1=Standing On Ice
TTITLE2=New Love
TTITLE3=Nightime
TTITLE4=Talk To Me
TTITLE5=Rebellious Heart
TTITLE6=Edge Of Goodbye
TTITLE7=Feel The Love
TTITLE8=Only Forever
TTITLE9=Take Me As I Am
TTITLE10=Carry Me
TTITLE11=I'll Find My Way
EXTD=
EXTT0=
EXTT1=
EXTT2=
EXTT3=
EXTT4=
EXTT5=
EXTT6=
EXTT7=
EXTT8=
EXTT9=
EXTT10=
EXTT11=
PLAYORDER=
